<?xml version="1.0" encoding="UTF-8" standalone="no"?>
<svg width="207px" height="147px" viewBox="0 0 207 147" version="1.1" xmlns="http://www.w3.org/2000/svg" xmlns:xlink="http://www.w3.org/1999/xlink" xmlns:sketch="http://www.bohemiancoding.com/sketch/ns">
    <!-- Generator: Sketch 3.5.1 (25234) - http://www.bohemiancoding.com/sketch -->
    <title>Group</title>
    <desc>Created with Sketch.</desc>
    <defs></defs>
    <g id="Page-1" stroke="none" stroke-width="1" fill="none" fill-rule="evenodd" sketch:type="MSPage">
        <g id="Group" sketch:type="MSLayerGroup" transform="translate(2.000000, 1.000000)">
            <g id="computer" sketch:type="MSShapeGroup">
                <path d="M160,100.999 L0,100.999 L0,0.999 L160,0.999 L160,100.999 Z" id="Fill-1" fill="#F7F7F7"></path>
                <path d="M160,100.999 L0,100.999 L0,0.999 L160,0.999 L160,100.999 Z" id="Stroke-2" stroke="#545E65" stroke-width="4"></path>
                <path d="M81.5,92.4986 L78.5,95.4986" id="Stroke-4" stroke="#545E65" stroke-linejoin="bevel"></path>
                <path d="M65,117.9977 L65,104.9997" id="Stroke-5" stroke="#545E65" stroke-width="2"></path>
                <path d="M95,104.9994 L95,117.9974" id="Stroke-6" stroke="#545E65" stroke-width="2"></path>
                <path d="M101.0012,119.998 L59.0002,119.998" id="Stroke-7" stroke="#545E65" stroke-width="2"></path>
                <path d="M157.999,6 L5,6 L5,88.998 L157.999,88.998 L157.999,6 Z" id="Fill-8" fill="#C2E9F9"></path>
                <path d="M158,88.499 L5,88.499" id="Stroke-9" stroke="#545E65" stroke-linejoin="bevel"></path>
            </g>
            <path d="M100,46.998 C100,58.044 91.046,66.998 80,66.998 C68.954,66.998 60,58.044 60,46.998 C60,35.952 68.954,26.998 80,26.998 C91.046,26.998 100,35.952 100,46.998" id="Fill-10" fill="#F7F7F7" sketch:type="MSShapeGroup"></path>
            <g id="Group-14" transform="translate(135.000000, 35.000000)" fill="#F7F7F7" sketch:type="MSShapeGroup">
                <path d="M9.0025,90.998 C4.0395,90.998 0.0025,86.96 0.0025,81.998 L0.0025,9.998 C0.0025,5.036 4.0395,0.998 9.0025,0.998 L61.0025,0.998 C65.9655,0.998 70.0025,5.036 70.0025,9.998 L70.0025,81.998 C70.0025,86.96 65.9655,90.998 61.0025,90.998 L9.0025,90.998 Z" id="Fill-12"></path>
            </g>
            <path d="M119,146 C114.037,146 110,141.962 110,137 L110,89.002 C110,84.04 114.037,80.002 119,80.002 L140.997,80.002 C145.96,80.002 149.997,84.04 149.997,89.002 L149.997,137 C149.997,141.962 145.96,146 140.997,146 L119,146 Z" id="Fill-15" fill="#F7F7F7" sketch:type="MSShapeGroup"></path>
            <path d="M196.0028,120.9979 L144.0028,120.9979 C141.7938,120.9979 140.0028,119.2069 140.0028,116.9979 L140.0028,44.9979 C140.0028,42.7889 141.7938,40.9979 144.0028,40.9979 L196.0028,40.9979 C198.2118,40.9979 200.0028,42.7889 200.0028,44.9979 L200.0028,116.9979 C200.0028,119.2069 198.2118,120.9979 196.0028,120.9979 L196.0028,120.9979 Z" id="Stroke-17" stroke="#545E65" stroke-width="2" sketch:type="MSShapeGroup"></path>
            <path d="M143,50.998 L199,50.998 L199,110.996 L143,110.996 L143,50.998 Z" id="Fill-19" fill="#DDE0E2" sketch:type="MSShapeGroup"></path>
            <path d="M199.0027,111.496 L143.0027,111.496" id="Stroke-21" stroke="#545E65" stroke-linejoin="bevel" sketch:type="MSShapeGroup"></path>
            <path d="M199.0027,50.496 L143.0027,50.496" id="Stroke-22" stroke="#545E65" stroke-linejoin="bevel" sketch:type="MSShapeGroup"></path>
            <path d="M168.5028,117.5016 L171.5028,114.5016" id="Stroke-23" stroke="#545E65" stroke-linejoin="bevel" sketch:type="MSShapeGroup"></path>
            <path d="M160.0025,88.998 L170.0025,71.998 L180.0025,88.998 L160.0025,88.998 Z" id="Fill-24" fill="#F7F7F7" sketch:type="MSShapeGroup"></path>
            <path d="M141,140.9956 L119.003,140.9956 C116.794,140.9956 115.003,139.2046 115.003,136.9956 L115.003,88.9976 C115.003,86.7886 116.794,84.9976 119.003,84.9976 L141,84.9976 C143.209,84.9976 145,86.7886 145,88.9976 L145,136.9956 C145,139.2046 143.209,140.9956 141,140.9956" id="Fill-25" fill="#F7F7F7" sketch:type="MSShapeGroup"></path>
            <path d="M141,140.9956 L119.003,140.9956 C116.794,140.9956 115.003,139.2046 115.003,136.9956 L115.003,88.9976 C115.003,86.7886 116.794,84.9976 119.003,84.9976 L141,84.9976 C143.209,84.9976 145,86.7886 145,88.9976 L145,136.9956 C145,139.2046 143.209,140.9956 141,140.9956 L141,140.9956 Z" id="Stroke-26" stroke="#545E65" stroke-width="2" sketch:type="MSShapeGroup"></path>
            <path d="M118.003,94.999 L144,94.999 L144,130.995 L118.003,130.995 L118.003,94.999 Z" id="Fill-27" fill="#D8F0C8" sketch:type="MSShapeGroup"></path>
            <path d="M143.9999,131.4937 L118.0029,131.4937" id="Stroke-28" stroke="#545E65" stroke-linejoin="bevel" sketch:type="MSShapeGroup"></path>
            <path d="M143.9999,94.4961 L118.0029,94.4961" id="Stroke-29" stroke="#545E65" stroke-linejoin="bevel" sketch:type="MSShapeGroup"></path>
            <path d="M128.5015,137.4993 L131.5015,134.4993" id="Stroke-30" stroke="#545E65" stroke-linejoin="bevel" sketch:type="MSShapeGroup"></path>
            <path d="M135.001,117.997 L125.001,117.997 L125.001,107.997 L135.001,107.997 L135.001,117.997 Z" id="Fill-31" fill="#F7F7F7" sketch:type="MSShapeGroup"></path>
        </g>
    </g>
</svg>