<?xml version="1.0" encoding="UTF-8" standalone="no"?>
<svg width="131px" height="188px" viewBox="0 0 131 188" version="1.1" xmlns="http://www.w3.org/2000/svg" xmlns:xlink="http://www.w3.org/1999/xlink" xmlns:sketch="http://www.bohemiancoding.com/sketch/ns">
    <!-- Generator: Sketch 3.5.1 (25234) - http://www.bohemiancoding.com/sketch -->
    <title>illustration</title>
    <desc>Created with Sketch.</desc>
    <defs></defs>
    <g id="Page-1" stroke="none" stroke-width="1" fill="none" fill-rule="evenodd" sketch:type="MSPage">
        <g id="2" sketch:type="MSArtboardGroup" transform="translate(-300.000000, -1511.000000)">
            <g id="Hand-holding-a-phone" sketch:type="MSLayerGroup" transform="translate(200.000000, 1441.000000)">
                <g id="illustration" transform="translate(101.000000, 70.000000)" sketch:type="MSShapeGroup">
                    <g id="hand" transform="translate(0.000000, 31.000000)">
                        <path d="M82.7729,100.4498 C71.2409,86.9198 56.2599,69.1378 43.8329,57.5838 C47.2169,49.9348 47.1349,42.6428 50.6729,36.2178 C56.5499,25.5428 61.2289,17.0438 61.5069,9.3238 C61.6649,4.9448 58.5389,0.9748 54.1699,0.6298 C49.4589,0.2568 42.4989,2.6288 42.3329,7.2588 C40.9999,44.5918 -3.3331,45.2578 0.2759,147.7498 C0.2759,152.3068 14.2309,155.9998 31.4459,155.9998 C48.6599,155.9998 62.6159,152.3068 62.6159,147.7498 C63.2429,125.2058 70.6099,115.8938 90.8579,118.4598 C94.0009,118.9938 101.8039,119.8518 107.9749,120.4738 C112.4679,120.9268 116.4299,117.5428 116.6799,113.0348 L116.6799,113.0348 C116.9169,108.7618 113.7119,105.0868 109.4499,104.7078 C96.6179,103.5658 87.5309,101.6448 82.7729,100.4498" id="Fill-1" fill="#FFFFFF"></path>
                        <path d="M82.7729,100.4498 C71.2409,86.9198 56.2599,69.1378 43.8329,57.5838 C47.2169,49.9348 47.1349,42.6428 50.6729,36.2178 C56.5499,25.5428 61.2289,17.0438 61.5069,9.3238 C61.6649,4.9448 58.5389,0.9748 54.1699,0.6298 C49.4589,0.2568 42.4989,2.6288 42.3329,7.2588 C40.9999,44.5918 -3.3331,45.2578 0.2759,147.7498 C0.2759,152.3068 14.2309,155.9998 31.4459,155.9998 C48.6599,155.9998 62.6159,152.3068 62.6159,147.7498 C63.2429,125.2058 70.6099,115.8938 90.8579,118.4598 C94.0009,118.9938 101.8039,119.8518 107.9749,120.4738 C112.4679,120.9268 116.4299,117.5428 116.6799,113.0348 L116.6799,113.0348 C116.9169,108.7618 113.7119,105.0868 109.4499,104.7078 C96.6179,103.5658 87.5309,101.6448 82.7729,100.4498 L82.7729,100.4498 Z" id="Stroke-3" stroke="#545E65" stroke-width="2"></path>
                        <path d="M128.906,75.7133 C128.79,70.7413 124.763,66.7313 119.79,66.6663 C101.052,66.4243 90.47,63.8993 90.369,63.8743 C85.553,62.6753 80.661,65.6003 79.455,70.4233 C78.25,75.2453 81.182,80.1313 86.004,81.3373 C86.497,81.4613 103.975,85.7623 119.815,85.4403 C124.953,85.3363 129.03,81.0893 128.912,75.9523 C128.91,75.8733 128.908,75.7933 128.906,75.7133" id="Fill-5" fill="#FFFFFF"></path>
                        <path d="M128.906,75.7133 C128.79,70.7413 124.763,66.7313 119.79,66.6663 C101.052,66.4243 90.47,63.8993 90.369,63.8743 C85.553,62.6753 80.661,65.6003 79.455,70.4233 C78.25,75.2453 81.182,80.1313 86.004,81.3373 C86.497,81.4613 103.975,85.7623 119.815,85.4403 C124.953,85.3363 129.03,81.0893 128.912,75.9523 C128.91,75.8733 128.908,75.7933 128.906,75.7133 L128.906,75.7133 Z" id="Stroke-7" stroke="#545E65" stroke-width="2"></path>
                        <path d="M125.2393,52.3799 C125.1233,47.4079 121.0963,43.3979 116.1233,43.3329 C97.3853,43.0909 86.8033,40.5659 86.7023,40.5409 C81.8863,39.3419 76.9943,42.2669 75.7883,47.0899 C74.5833,51.9119 77.5153,56.7979 82.3373,58.0039 C82.8303,58.1279 100.3083,62.4289 116.1483,62.1069 C121.2863,62.0029 125.3633,57.7559 125.2453,52.6189 C125.2433,52.5399 125.2413,52.4599 125.2393,52.3799" id="Fill-9" fill="#FFFFFF"></path>
                        <path d="M125.2393,52.3799 C125.1233,47.4079 121.0963,43.3979 116.1233,43.3329 C97.3853,43.0909 86.8033,40.5659 86.7023,40.5409 C81.8863,39.3419 76.9943,42.2669 75.7883,47.0899 C74.5833,51.9119 77.5153,56.7979 82.3373,58.0039 C82.8303,58.1279 100.3083,62.4289 116.1483,62.1069 C121.2863,62.0029 125.3633,57.7559 125.2453,52.6189 C125.2433,52.5399 125.2413,52.4599 125.2393,52.3799 L125.2393,52.3799 Z" id="Stroke-11" stroke="#545E65" stroke-width="2"></path>
                    </g>
                    <g id="mobile" transform="translate(35.000000, 0.000000)">
                        <path d="M14.8535,142.603 C7.1335,142.603 0.8535,136.323 0.8535,128.603 L0.8535,14.603 C0.8535,6.883 7.1335,0.603 14.8535,0.603 L68.8535,0.603 C76.5735,0.603 82.8535,6.883 82.8535,14.603 L82.8535,128.603 C82.8535,136.323 76.5735,142.603 68.8535,142.603 L14.8535,142.603 Z" id="Fill-13" fill="#F7F7F7"></path>
                        <path d="M68.8535,136.6033 L14.8535,136.6033 C10.4355,136.6033 6.8535,133.0213 6.8535,128.6033 L6.8535,14.6033 C6.8535,10.1853 10.4355,6.6033 14.8535,6.6033 L68.8535,6.6033 C73.2715,6.6033 76.8535,10.1853 76.8535,14.6033 L76.8535,128.6033 C76.8535,133.0213 73.2715,136.6033 68.8535,136.6033" id="Fill-15" fill="#F7F7F7"></path>
                        <path d="M68.8535,136.6033 L14.8535,136.6033 C10.4355,136.6033 6.8535,133.0213 6.8535,128.6033 L6.8535,14.6033 C6.8535,10.1853 10.4355,6.6033 14.8535,6.6033 L68.8535,6.6033 C73.2715,6.6033 76.8535,10.1853 76.8535,14.6033 L76.8535,128.6033 C76.8535,133.0213 73.2715,136.6033 68.8535,136.6033 L68.8535,136.6033 Z" id="Stroke-17" stroke="#545E65" stroke-width="4"></path>
                        <path d="M11.854,28.603 L74.854,28.603 L74.854,114.603 L11.854,114.603 L11.854,28.603 Z" id="Fill-19" fill="#D8F0C8"></path>
                        <path d="M74.8533,28.1033 L11.8533,28.1033" id="Stroke-21" stroke="#545E65" stroke-linejoin="bevel"></path>
                        <path d="M74.8533,115.112 L11.8533,115.112" id="Stroke-22" stroke="#545E65" stroke-linejoin="bevel"></path>
                        <path d="M38.3532,129.1309 L45.3542,122.1299" id="Stroke-23" stroke="#545E65" stroke-linejoin="bevel"></path>
                        <path d="M54.854,83.104 L31.854,83.104 L31.854,60.102 L54.854,60.102 L54.854,83.104 Z" id="Fill-24" fill="#F7F7F7"></path>
                    </g>
                    <g id="finger" transform="translate(18.000000, 84.000000)">
                        <path d="M31,67.9253 C35,52.1753 28.999,39.9173 36.404,30.3173 C39.047,26.8903 43.15,24.8733 49.428,23.8573 C54.984,22.9573 58.988,18.0253 58.868,12.3973 C58.866,12.2863 58.863,12.1743 58.861,12.0623 C58.714,5.2103 52.577,-0.0107 45.804,1.0393 C17.475,5.4343 6.134,21.7903 0.499,36.5843" id="Fill-25" fill="#FFFFFF"></path>
                        <path d="M31,67.9253 C35,52.1753 28.999,39.9173 36.404,30.3173 C39.047,26.8903 43.15,24.8733 49.428,23.8573 C54.984,22.9573 58.988,18.0253 58.868,12.3973 C58.866,12.2863 58.863,12.1743 58.861,12.0623 C58.714,5.2103 52.577,-0.0107 45.804,1.0393 C17.475,5.4343 6.134,21.7903 0.499,36.5843" id="Stroke-26" stroke="#545E65" stroke-width="2"></path>
                    </g>
                </g>
            </g>
        </g>
    </g>
</svg>