<?xml version="1.0" encoding="UTF-8" standalone="no"?>
<svg width="145px" height="235px" viewBox="0 0 145 235" version="1.1" xmlns="http://www.w3.org/2000/svg" xmlns:xlink="http://www.w3.org/1999/xlink" xmlns:sketch="http://www.bohemiancoding.com/sketch/ns">
    <!-- Generator: Sketch 3.5.1 (25234) - http://www.bohemiancoding.com/sketch -->
    <title>illustration</title>
    <desc>Created with Sketch.</desc>
    <defs></defs>
    <g id="Page-1" stroke="none" stroke-width="1" fill="none" fill-rule="evenodd" sketch:type="MSPage">
        <g id="1" sketch:type="MSArtboardGroup" transform="translate(-278.000000, -1894.000000)">
            <g id="Rocket" sketch:type="MSLayerGroup" transform="translate(200.000000, 1861.000000)">
                <g id="illustration" transform="translate(78.000000, 33.000000)" sketch:type="MSShapeGroup">
                    <path d="M131.4988,189.5491 C131.4988,189.5331 131.4998,189.5161 131.4998,189.5001 C131.4998,176.8291 126.3168,165.3721 117.9598,157.1221 C114.5298,134.9631 95.3738,118.0001 72.2538,118.0001 C46.7078,118.0001 25.9998,138.7091 25.9998,164.2541 C25.9998,168.0211 26.4608,171.6781 27.3098,175.1841 C13.0718,176.7701 1.9998,188.8401 1.9998,203.5011 C1.9998,219.2401 14.7588,232.0001 30.4988,232.0001 C39.6918,232.0001 47.8638,227.6421 53.0748,220.8851 C61.3618,229.5761 73.0438,235.0001 85.9998,235.0001 C98.8078,235.0001 110.3718,229.7001 118.6408,221.1831 C121.1768,222.6481 124.1108,223.5001 127.2498,223.5001 C136.7768,223.5001 144.4998,215.7771 144.4998,206.2501 C144.4998,198.1921 138.9668,191.4441 131.4988,189.5491" id="Fill-1" fill="#FFFFFF"></path>
                    <g id="rocket" transform="translate(12.000000, 4.000000)">
                        <path d="M34.0007,94.7533 L5.0037,136.4433 L5.0037,142.4973 L34.0007,142.4973 L34.0007,94.7533 Z" id="Fill-4" fill="#DDE0E2"></path>
                        <path d="M80.9997,88.4385 L80.9997,48.9105 C80.9997,41.2745 79.1107,33.6685 75.5377,26.9185 L66.6227,10.0815 C65.1237,7.2505 62.2037,5.4935 59.0007,5.4935 C55.7977,5.4935 52.8767,7.2505 51.3787,10.0805 L42.4637,26.9195 C38.8897,33.6685 37.0007,41.2735 37.0007,48.9115 L37.0017,90.4385 L37.0007,90.4405 L37.0007,142.4975 L37.0007,145.2495 L37.0007,151.5055 L80.9997,151.5055 L80.9997,142.4975 L112.9977,142.4975 L112.9977,134.4435 L80.9997,88.4385 Z" id="Fill-6" fill="#DDE0E2"></path>
                        <path d="M33.0006,60.4943 L33.0016,99.4993" id="Stroke-8" stroke="#545E65" stroke-width="2"></path>
                        <path d="M80.9994,99.4996 L80.9994,60.4946" id="Stroke-10" stroke="#545E65" stroke-width="2"></path>
                        <path d="M57.0005,143.504 L57.0005,86.497" id="Stroke-12" stroke="#545E65" stroke-width="4"></path>
                        <path d="M33.0006,136.5019 L33.0016,143.5039" id="Stroke-14" stroke="#545E65" stroke-width="2"></path>
                        <path d="M80.9994,143.504 L80.9994,136.502" id="Stroke-16" stroke="#545E65" stroke-width="2"></path>
                        <path d="M74.9975,53.9975 L81.9995,53.9975" id="Stroke-18" stroke="#545E65"></path>
                        <path d="M31.9932,53.9975 L38.9952,53.9975" id="Stroke-20" stroke="#545E65"></path>
                        <path d="M74.9975,70.9992 L81.9995,70.9992" id="Stroke-22" stroke="#545E65"></path>
                        <path d="M31.9932,70.9992 L38.9952,70.9992" id="Stroke-24" stroke="#545E65"></path>
                        <path d="M53.4964,53.9975 L61.4964,53.9975" id="Stroke-26" stroke="#545E65"></path>
                        <path d="M53.4964,70.9992 L61.4964,70.9992" id="Stroke-28" stroke="#545E65"></path>
                        <path d="M113.9977,133.5031 L81.9997,87.4981 L81.9997,46.9111 C81.9997,38.7551 80.0047,30.7231 76.1887,23.5161 L67.2737,6.6771 C65.2587,2.8721 61.3057,0.4921 57.0007,0.4921 L57.0007,0.4921 C52.6947,0.4921 48.7427,2.8721 46.7277,6.6771 L37.8127,23.5151 C33.9957,30.7231 32.0007,38.7561 32.0007,46.9121 L32.0017,87.4981 L0.0027,133.5031 L0.0027,143.4971 L32.0007,143.4971 L32.0007,152.5051 L81.9997,152.5051 L81.9997,143.4971 L113.9977,143.4971 L113.9977,133.5031 L113.9977,133.5031 Z" id="Stroke-30" stroke="#545E65" stroke-width="4"></path>
                        <path d="M71.9995,32.4915 C63.7085,27.1585 50.2905,27.1585 41.9995,32.4915" id="Stroke-32" stroke="#545E65" stroke-width="4"></path>
                        <path d="M71.1843,160.5056 L42.8163,160.5056 C41.1223,169.0416 40.5413,186.9586 57.0003,200.5056 C73.4593,186.9586 72.8783,169.0416 71.1843,160.5056" id="Fill-34" fill="#FFFFFF"></path>
                        <path d="M71.6624,163.5058 L45.8174,163.5058 C44.3034,171.1308 43.6894,186.2418 55.3074,199.0368 C55.8524,199.5308 56.4124,200.0218 57.0004,200.5058 C71.7254,188.3858 72.8104,172.7748 71.6624,163.5058" id="Fill-36" fill="#FF5C47"></path>
                        <path d="M19.9958,160.5056 L19.9958,202.5076" id="Stroke-38" stroke="#545E65" stroke-width="2"></path>
                        <path d="M110.0048,150.5046 L110.0048,173.5046" id="Stroke-40" stroke="#545E65" stroke-width="2"></path>
                        <path d="M72.0053,159.5056 L71.1843,159.5056 L42.8163,159.5056 L41.9953,159.5056 L41.8353,160.3106 C40.3473,167.8076 38.7843,186.8076 56.3653,201.2776 L57.0003,201.8006 L57.6363,201.2776 C75.2173,186.8076 73.6533,167.8076 72.1653,160.3106 L72.0053,159.5056 Z M71.1843,160.5056 C72.8783,169.0416 73.4593,186.9586 57.0003,200.5056 C40.5413,186.9586 41.1223,169.0416 42.8163,160.5056 L71.1843,160.5056 L71.1843,160.5056 Z" id="Fill-42" fill="#545E65"></path>
                        <path d="M54.0005,160.5056 L57.0005,178.5046 L60.0005,160.5056 L54.0005,160.5056 Z" id="Fill-44" fill="#FFFFFF"></path>
                        <path d="M38.0011,156.4983 L38.0011,160.5053 L75.9991,160.5053 L75.9991,156.4983" id="Stroke-46" stroke="#545E65" stroke-width="2"></path>
                    </g>
                    <path d="M132.6667,5.1667 C129.9057,5.1667 127.6667,2.9277 127.6667,0.1667 C127.6667,2.9277 125.4277,5.1667 122.6667,5.1667 C125.4277,5.1667 127.6667,7.4057 127.6667,10.1667 C127.6667,7.4057 129.9057,5.1667 132.6667,5.1667" id="Fill-48" fill="#FF5C47"></path>
                    <path d="M10,65.8333 C7.239,65.8333 5,63.5943 5,60.8333 C5,63.5943 2.761,65.8333 0,65.8333 C2.761,65.8333 5,68.0723 5,70.8333 C5,68.0723 7.239,65.8333 10,65.8333" id="Fill-51" fill="#545E65"></path>
                </g>
            </g>
        </g>
    </g>
</svg>