<?xml version="1.0" encoding="UTF-8" standalone="no"?>
<svg width="188px" height="150px" viewBox="0 0 188 150" version="1.1" xmlns="http://www.w3.org/2000/svg" xmlns:xlink="http://www.w3.org/1999/xlink" xmlns:sketch="http://www.bohemiancoding.com/sketch/ns">
    <!-- Generator: Sketch 3.5.1 (25234) - http://www.bohemiancoding.com/sketch -->
    <title>illustration</title>
    <desc>Created with Sketch.</desc>
    <defs></defs>
    <g id="Page-1" stroke="none" stroke-width="1" fill="none" fill-rule="evenodd" sketch:type="MSPage">
        <g id="3" sketch:type="MSArtboardGroup" transform="translate(-604.000000, -707.000000)">
            <g id="Team" sketch:type="MSLayerGroup" transform="translate(548.000000, 601.000000)">
                <g id="illustration" transform="translate(56.000000, 107.000000)" sketch:type="MSShapeGroup">
                    <g id="notebook" transform="translate(48.000000, 84.000000)">
                        <path d="M86.5068,0.5036 L4.5068,0.5036 C2.2978,0.5036 0.5068,2.2946 0.5068,4.5036 L0.5068,52.5046 C0.5068,54.7136 2.2978,56.5046 4.5068,56.5046 L86.5068,56.5046 C88.7158,56.5046 90.5068,54.7136 90.5068,52.5046 L90.5068,4.5036 C90.5068,2.2946 88.7158,0.5036 86.5068,0.5036" id="Fill-7" fill="#F7F7F7"></path>
                        <path d="M6.5067,56.5037 C5.4037,56.5037 4.5067,55.6067 4.5067,54.5037 L4.5067,6.5037 C4.5067,5.4007 5.4037,4.5037 6.5067,4.5037 L88.5067,4.5037 C89.6097,4.5037 90.5067,5.4007 90.5067,6.5037 L90.5067,54.5037 C90.5067,55.6067 89.6097,56.5037 88.5067,56.5037 L6.5067,56.5037 Z" id="Fill-9" fill="#DDE0E2"></path>
                        <path d="M0.5068,59.5045 L0.5068,62.4995 C0.5068,63.6045 1.4018,64.4995 2.5068,64.4995 L88.5068,64.4995 C89.6118,64.4995 90.5068,63.6045 90.5068,62.4995 L90.5068,59.5045" id="Fill-11" fill="#F7F7F7"></path>
                        <path d="M0.5068,59.5045 L0.5068,62.4995 C0.5068,63.6045 1.4018,64.4995 2.5068,64.4995 L88.5068,64.4995 C89.6118,64.4995 90.5068,63.6045 90.5068,62.4995 L90.5068,59.5045" id="Stroke-13" stroke="#545E65"></path>
                        <path d="M86.5068,0.5036 L4.5068,0.5036 C2.2978,0.5036 0.5068,2.2946 0.5068,4.5036 L0.5068,52.5046 C0.5068,54.7136 2.2978,56.5046 4.5068,56.5046 L86.5068,56.5046 C88.7158,56.5046 90.5068,54.7136 90.5068,52.5046 L90.5068,4.5036 C90.5068,2.2946 88.7158,0.5036 86.5068,0.5036 L86.5068,0.5036 Z" id="Stroke-15" stroke="#545E65" stroke-width="2"></path>
                        <path d="M50.5069,28.5039 C50.5069,31.2649 48.2679,33.5039 45.5069,33.5039 C42.7449,33.5039 40.5069,31.2649 40.5069,28.5039 C40.5069,25.7429 42.7449,23.5039 45.5069,23.5039 C48.2679,23.5039 50.5069,25.7429 50.5069,28.5039" id="Fill-17" fill="#545E65"></path>
                    </g>
                    <g id="persone" transform="translate(136.000000, 0.000000)">
                        <path d="M7.4983,18.0604 C7.4983,8.1194 15.5573,0.0604 25.4983,0.0604 C35.4393,0.0604 43.4983,8.1194 43.4983,18.0604" id="Fill-19" fill="#545E65"></path>
                        <path d="M7.4983,18.0604 C7.4983,8.1194 15.5573,0.0604 25.4983,0.0604 C35.4393,0.0604 43.4983,8.1194 43.4983,18.0604" id="Stroke-21" stroke="#545E65" stroke-width="2"></path>
                        <path d="M43.498,56.06 L7.498,56.06 L7.498,18.06 L43.498,18.06 L43.498,56.06 Z" id="Fill-23" fill="#545E65"></path>
                        <path d="M43.498,56.06 L7.498,56.06 L7.498,18.06 L43.498,18.06 L43.498,56.06 Z" id="Stroke-25" stroke="#545E65" stroke-width="2"></path>
                        <path d="M0.5136,69.5046 C0.5136,57.9986 11.7066,48.6716 25.5136,48.6716 C39.3206,48.6716 50.5136,57.9986 50.5136,69.5046" id="Fill-26" fill="#F7F7F7"></path>
                        <path d="M0.5136,69.5046 C0.5136,57.9986 11.7066,48.6716 25.5136,48.6716 C39.3206,48.6716 50.5136,57.9986 50.5136,69.5046" id="Stroke-27" stroke="#545E65"></path>
                        <path d="M25.498,54.532 C25.498,57.294 23.259,59.533 20.497,59.533 C17.735,59.533 15.496,57.294 15.496,54.532 C15.496,51.77 17.735,49.531 20.497,49.531 C23.259,49.531 25.498,51.77 25.498,54.532" id="Fill-29" fill="#545E65"></path>
                        <path d="M35.5004,54.532 C35.5004,57.294 33.2614,59.533 30.4994,59.533 C27.7374,59.533 25.4984,57.294 25.4984,54.532 C25.4984,51.77 27.7374,49.531 30.4994,49.531 C33.2614,49.531 35.5004,51.77 35.5004,54.532" id="Fill-30" fill="#545E65"></path>
                        <path d="M18.498,36.5322 L18.498,53.5322 C18.498,55.1892 21.632,56.5322 25.498,56.5322 C29.364,56.5322 32.498,55.1892 32.498,53.5322 L32.498,36.5322 L18.498,36.5322 Z" id="Fill-31" fill="#F7F7F7"></path>
                        <path d="M18.498,36.5322 L18.498,53.5322 C18.498,55.1892 21.632,56.5322 25.498,56.5322 C29.364,56.5322 32.498,55.1892 32.498,53.5322 L32.498,36.5322 L18.498,36.5322 L18.498,36.5322 Z" id="Stroke-32" stroke="#545E65" stroke-width="2"></path>
                        <path d="M10.4983,18.5315 L10.4983,24.5315 C10.4983,36.4485 17.3103,46.5315 25.4983,46.5315 C33.6853,46.5315 40.4983,36.4485 40.4983,24.5315 L40.4983,18.5315 L10.4983,18.5315 Z" id="Fill-33" fill="#F7F7F7"></path>
                        <path d="M10.4983,18.5315 L10.4983,24.5315 C10.4983,36.4485 17.3103,46.5315 25.4983,46.5315 C33.6853,46.5315 40.4983,36.4485 40.4983,24.5315 L40.4983,18.5315 L10.4983,18.5315 L10.4983,18.5315 Z" id="Stroke-34" stroke="#545E65" stroke-width="2"></path>
                        <path d="M40.4985,18.5315 C40.4985,20.1885 33.7825,21.5315 25.4985,21.5315 C17.2145,21.5315 10.4985,20.1885 10.4985,18.5315 C10.4985,16.8745 17.2145,15.5315 25.4985,15.5315 C33.7825,15.5315 40.4985,16.8745 40.4985,18.5315" id="Fill-35" fill="#545E65"></path>
                        <path d="M40.4985,18.5315 C40.4985,20.1885 33.7825,21.5315 25.4985,21.5315 C17.2145,21.5315 10.4985,20.1885 10.4985,18.5315 C10.4985,16.8745 17.2145,15.5315 25.4985,15.5315 C33.7825,15.5315 40.4985,16.8745 40.4985,18.5315 L40.4985,18.5315 Z" id="Stroke-36" stroke="#545E65" stroke-width="2"></path>
                        <path d="M19.4988,28.0322 C19.4988,29.4132 18.6038,30.5322 17.4988,30.5322 C16.3938,30.5322 15.4988,29.4132 15.4988,28.0322 C15.4988,26.6512 16.3938,25.5322 17.4988,25.5322 C18.6038,25.5322 19.4988,26.6512 19.4988,28.0322" id="Fill-37" fill="#545E65"></path>
                        <path d="M35.5004,28.0322 C35.5004,29.4132 34.6054,30.5322 33.5004,30.5322 C32.3954,30.5322 31.5004,29.4132 31.5004,28.0322 C31.5004,26.6512 32.3954,25.5322 33.5004,25.5322 C34.6054,25.5322 35.5004,26.6512 35.5004,28.0322" id="Fill-38" fill="#545E65"></path>
                        <path d="M25.4985,35.9732 C23.8185,35.0522 21.8515,35.5682 20.4985,37.5312 C23.2625,42.8642 27.7345,42.8642 30.4985,37.5312 C29.1445,35.5682 27.1785,35.0522 25.4985,35.9732" id="Fill-39" fill="#545E65"></path>
                    </g>
                    <g id="persone" transform="translate(61.000000, 0.000000)">
                        <path d="M69.1767,47.0025 C64.8507,47.0025 61.3437,43.4955 61.3437,39.1695 C61.3437,38.2265 61.5187,37.3265 61.8237,36.4895 C60.9717,36.2885 60.0867,36.1705 59.1737,36.1705 C52.8227,36.1705 47.6737,41.3195 47.6737,47.6705 C47.6737,54.0215 52.8227,59.1705 59.1737,59.1705 C65.5247,59.1705 70.6737,54.0215 70.6737,47.6705 C70.6737,47.3975 70.6517,47.1305 70.6327,46.8625 C70.1607,46.9505 69.6747,47.0025 69.1767,47.0025" id="Fill-40" fill="#545E65"></path>
                        <path d="M69.1767,47.0025 C64.8507,47.0025 61.3437,43.4955 61.3437,39.1695 C61.3437,38.2265 61.5187,37.3265 61.8237,36.4895 C60.9717,36.2885 60.0867,36.1705 59.1737,36.1705 C52.8227,36.1705 47.6737,41.3195 47.6737,47.6705 C47.6737,54.0215 52.8227,59.1705 59.1737,59.1705 C65.5247,59.1705 70.6737,54.0215 70.6737,47.6705 C70.6737,47.3975 70.6517,47.1305 70.6327,46.8625 C70.1607,46.9505 69.6747,47.0025 69.1767,47.0025 L69.1767,47.0025 Z" id="Stroke-41" stroke="#545E65" stroke-width="2"></path>
                        <path d="M36.0068,31.2538 C36.0068,40.0908 28.8438,47.2538 20.0068,47.2538 C11.1698,47.2538 4.0068,40.0908 4.0068,31.2538 C4.0068,22.4168 11.1698,15.2538 20.0068,15.2538 C28.8438,15.2538 36.0068,22.4168 36.0068,31.2538" id="Fill-42" fill="#545E65"></path>
                        <path d="M36.0068,31.2538 C36.0068,40.0908 28.8438,47.2538 20.0068,47.2538 C11.1698,47.2538 4.0068,40.0908 4.0068,31.2538 C4.0068,22.4168 11.1698,15.2538 20.0068,15.2538 C28.8438,15.2538 36.0068,22.4168 36.0068,31.2538 L36.0068,31.2538 Z" id="Stroke-43" stroke="#545E65" stroke-width="2"></path>
                        <path d="M19.0068,35.2538 C19.0068,23.2418 28.7448,13.5038 40.7568,13.5038 C52.7688,13.5038 62.5068,23.2418 62.5068,35.2538 C62.5068,47.2658 52.7688,57.0038 40.7568,57.0038 C28.7448,57.0038 19.0068,47.2658 19.0068,35.2538" id="Fill-44" fill="#545E65"></path>
                        <path d="M19.0068,35.2538 C19.0068,23.2418 28.7448,13.5038 40.7568,13.5038 C52.7688,13.5038 62.5068,23.2418 62.5068,35.2538 C62.5068,47.2658 52.7688,57.0038 40.7568,57.0038 C28.7448,57.0038 19.0068,47.2658 19.0068,35.2538 L19.0068,35.2538 Z" id="Stroke-45" stroke="#545E65" stroke-width="2"></path>
                        <path d="M39.0068,45.1705 C39.0068,36.0575 31.6198,28.6705 22.5068,28.6705 C13.3938,28.6705 6.0068,36.0575 6.0068,45.1705 C6.0068,54.2835 13.3938,61.6705 22.5068,61.6705 C31.6198,61.6705 39.0068,54.2835 39.0068,45.1705" id="Fill-46" fill="#545E65"></path>
                        <path d="M39.0068,45.1705 C39.0068,36.0575 31.6198,28.6705 22.5068,28.6705 C13.3938,28.6705 6.0068,36.0575 6.0068,45.1705 C6.0068,54.2835 13.3938,61.6705 22.5068,61.6705 C31.6198,61.6705 39.0068,54.2835 39.0068,45.1705 L39.0068,45.1705 Z" id="Stroke-47" stroke="#545E65" stroke-width="2"></path>
                        <path d="M58.5068,61.0038 C58.5068,52.4438 51.5668,45.5038 43.0068,45.5038 C34.4468,45.5038 27.5068,52.4438 27.5068,61.0038 C27.5068,69.5638 34.4468,76.5038 43.0068,76.5038 C51.5668,76.5038 58.5068,69.5638 58.5068,61.0038" id="Fill-48" fill="#545E65"></path>
                        <path d="M58.5068,61.0038 C58.5068,52.4438 51.5668,45.5038 43.0068,45.5038 C34.4468,45.5038 27.5068,52.4438 27.5068,61.0038 C27.5068,69.5638 34.4468,76.5038 43.0068,76.5038 C51.5668,76.5038 58.5068,69.5638 58.5068,61.0038 L58.5068,61.0038 Z" id="Stroke-49" stroke="#545E65" stroke-width="2"></path>
                        <path d="M8.8883,21.6604 C8.8883,9.7314 18.5593,0.0604 30.4883,0.0604 C42.4173,0.0604 52.0883,9.7314 52.0883,21.6604" id="Fill-50" fill="#545E65"></path>
                        <path d="M8.8883,21.6604 C8.8883,9.7314 18.5593,0.0604 30.4883,0.0604 C42.4173,0.0604 52.0883,9.7314 52.0883,21.6604" id="Stroke-51" stroke="#545E65" stroke-width="2"></path>
                        <path d="M0.5066,83.3934 C0.5066,69.5864 13.9376,58.3934 30.5066,58.3934 C47.0756,58.3934 60.5066,69.5864 60.5066,83.3934" id="Fill-53" fill="#F7F7F7"></path>
                        <path d="M0.5066,83.3934 C0.5066,69.5864 13.9376,58.3934 30.5066,58.3934 C47.0756,58.3934 60.5066,69.5864 60.5066,83.3934" id="Stroke-54" stroke="#545E65"></path>
                        <path d="M42.8877,64.2265 C42.8877,68.7015 37.7887,71.8265 30.4887,71.8265 C23.1877,71.8265 18.0877,68.7015 18.0877,64.2265" id="Fill-56" fill="#F7F7F7"></path>
                        <path d="M42.8877,64.2265 C42.8877,68.7015 37.7887,71.8265 30.4887,71.8265 C23.1877,71.8265 18.0877,68.7015 18.0877,64.2265" id="Stroke-57" stroke="#545E65" stroke-width="2"></path>
                        <path d="M22.0878,43.8265 L22.0878,64.2265 C22.0878,66.2145 25.8488,67.8265 30.4878,67.8265 C35.1268,67.8265 38.8878,66.2145 38.8878,64.2265 L38.8878,43.8265 L22.0878,43.8265 Z" id="Fill-59" fill="#F7F7F7"></path>
                        <path d="M22.0878,43.8265 L22.0878,64.2265 C22.0878,66.2145 25.8488,67.8265 30.4878,67.8265 C35.1268,67.8265 38.8878,66.2145 38.8878,64.2265 L38.8878,43.8265 L22.0878,43.8265 L22.0878,43.8265 Z" id="Stroke-60" stroke="#545E65" stroke-width="2"></path>
                        <path d="M12.4883,26.2261 L12.4883,29.2971 C12.4883,43.3421 20.6633,55.2261 30.4883,55.2261 C40.3133,55.2261 48.4883,43.3421 48.4883,29.2971 L48.4883,26.2261" id="Fill-61" fill="#F7F7F7"></path>
                        <path d="M12.4883,26.2261 L12.4883,29.2971 C12.4883,43.3421 20.6633,55.2261 30.4883,55.2261 C40.3133,55.2261 48.4883,43.3421 48.4883,29.2971 L48.4883,26.2261" id="Stroke-62" stroke="#545E65" stroke-width="2"></path>
                        <path d="M12.4884,27.2261 C12.4884,22.8081 20.5474,19.2261 30.4884,19.2261 C40.4294,19.2261 48.4884,22.8081 48.4884,27.2261" id="Fill-64" fill="#F7F7F7"></path>
                        <path d="M22.4889,34.1267 C22.4889,35.5077 21.5939,36.6267 20.4889,36.6267 C19.3839,36.6267 18.4889,35.5077 18.4889,34.1267 C18.4889,32.7457 19.3839,31.6267 20.4889,31.6267 C21.5939,31.6267 22.4889,32.7457 22.4889,34.1267" id="Fill-67" fill="#545E65"></path>
                        <path d="M42.4877,34.1267 C42.4877,35.5077 41.5927,36.6267 40.4877,36.6267 C39.3827,36.6267 38.4877,35.5077 38.4877,34.1267 C38.4877,32.7457 39.3827,31.6267 40.4877,31.6267 C41.5927,31.6267 42.4877,32.7457 42.4877,34.1267" id="Fill-68" fill="#545E65"></path>
                        <path d="M24.4883,44.6251 C27.8043,49.9581 33.1713,49.9581 36.4883,44.6251 L24.4883,44.6251 Z" id="Fill-69" fill="#545E65"></path>
                        <path d="M25.4885,44.6251 C28.2525,43.2921 32.7245,43.2921 35.4885,44.6251 L25.4885,44.6251 Z" id="Fill-70" fill="#545E65"></path>
                        <path d="M34.382,0.9823 C40.791,7.3913 40.791,17.7823 34.382,24.1913 C27.973,30.6003 17.582,30.6003 11.173,24.1913" id="Fill-71" fill="#545E65"></path>
                        <path d="M34.382,0.9823 C40.791,7.3913 40.791,17.7823 34.382,24.1913 C27.973,30.6003 17.582,30.6003 11.173,24.1913" id="Stroke-72" stroke="#545E65" stroke-width="2"></path>
                        <path d="M41.3447,10.4159 C37.1827,14.5779 37.1827,21.3269 41.3447,25.4889 C45.5067,29.6509 52.2557,29.6509 56.4177,25.4889" id="Fill-74" fill="#545E65"></path>
                        <path d="M41.3447,10.4159 C37.1827,14.5779 37.1827,21.3269 41.3447,25.4889 C45.5067,29.6509 52.2557,29.6509 56.4177,25.4889" id="Stroke-75" stroke="#545E65" stroke-width="2"></path>
                    </g>
                    <g id="persone" transform="translate(0.000000, 5.000000)">
                        <path d="M0.5,65.5047 C0.5,53.9987 11.693,44.6717 25.5,44.6717 C39.307,44.6717 50.5,53.9987 50.5,65.5047" id="Fill-77" fill="#F7F7F7"></path>
                        <path d="M0.5,65.5047 C0.5,53.9987 11.693,44.6717 25.5,44.6717 C39.307,44.6717 50.5,53.9987 50.5,65.5047" id="Stroke-78" stroke="#545E65"></path>
                        <path d="M14.3732,51.6155 L25.4842,61.3375 L36.5952,51.6155 L14.3732,51.6155 Z" id="Fill-80" fill="#545E65"></path>
                        <path d="M14.3732,51.6155 L25.4842,61.3375 L36.5952,51.6155 L14.3732,51.6155 L14.3732,51.6155 Z" id="Stroke-81" stroke="#545E65" stroke-width="2" stroke-linecap="round" stroke-linejoin="round"></path>
                        <path d="M25.4843,57.1711 C16.9173,57.1711 11.5953,53.9781 11.5953,48.8381 C11.5953,43.6971 16.9173,40.5041 25.4843,40.5041 C34.0513,40.5041 39.3733,43.6971 39.3733,48.8381 C39.3733,53.9781 34.0513,57.1711 25.4843,57.1711" id="Fill-82" fill="#F7F7F7"></path>
                        <path d="M25.4843,57.1711 C16.9173,57.1711 11.5953,53.9781 11.5953,48.8381 C11.5953,43.6971 16.9173,40.5041 25.4843,40.5041 C34.0513,40.5041 39.3733,43.6971 39.3733,48.8381 C39.3733,53.9781 34.0513,57.1711 25.4843,57.1711 L25.4843,57.1711 Z" id="Stroke-83" stroke="#545E65" stroke-width="2"></path>
                        <path d="M17.151,34.9479 L17.151,48.8379 C17.151,50.3719 20.882,51.6149 25.484,51.6149 C30.087,51.6149 33.818,50.3719 33.818,48.8379 L33.818,34.9479 L17.151,34.9479 Z" id="Fill-84" fill="#F7F7F7"></path>
                        <path d="M17.151,34.9479 L17.151,48.8379 C17.151,50.3719 20.882,51.6149 25.484,51.6149 C30.087,51.6149 33.818,50.3719 33.818,48.8379 L33.818,34.9479 L17.151,34.9479 L17.151,34.9479 Z" id="Stroke-85" stroke="#545E65" stroke-width="2"></path>
                        <path d="M15.8173,23.1267 C15.8173,25.7037 13.7283,27.7937 11.1503,27.7937 C8.5733,27.7937 6.4843,24.7037 6.4843,22.1267 C6.4843,19.5497 8.5733,18.4597 11.1503,18.4597 C13.7283,18.4597 15.8173,20.5497 15.8173,23.1267" id="Fill-86" fill="#F7F7F7"></path>
                        <path d="M15.8173,23.1267 C15.8173,25.7037 13.7283,27.7937 11.1503,27.7937 C8.5733,27.7937 6.4843,24.7037 6.4843,22.1267 C6.4843,19.5497 8.5733,18.4597 11.1503,18.4597 C13.7283,18.4597 15.8173,20.5497 15.8173,23.1267 L15.8173,23.1267 Z" id="Stroke-87" stroke="#545E65" stroke-width="2"></path>
                        <path d="M35.1515,22.6267 C35.1515,25.2037 37.2405,27.2937 39.8185,27.2937 C42.3955,27.2937 44.4845,24.2037 44.4845,21.6267 C44.4845,19.0497 42.3955,17.9597 39.8185,17.9597 C37.2405,17.9597 35.1515,20.0497 35.1515,22.6267" id="Fill-88" fill="#F7F7F7"></path>
                        <path d="M35.1515,22.6267 C35.1515,25.2037 37.2405,27.2937 39.8185,27.2937 C42.3955,27.2937 44.4845,24.2037 44.4845,21.6267 C44.4845,19.0497 42.3955,17.9597 39.8185,17.9597 C37.2405,17.9597 35.1515,20.0497 35.1515,22.6267 L35.1515,22.6267 Z" id="Stroke-89" stroke="#545E65" stroke-width="2"></path>
                        <path d="M25.4844,0.5317 C17.2004,0.5317 10.4844,7.6947 10.4844,16.5317 C10.4844,25.3687 17.2004,32.5317 25.4844,32.5317 C33.7684,32.5317 40.4844,25.3687 40.4844,16.5317 C40.4844,7.6947 33.7684,0.5317 25.4844,0.5317" id="Fill-90" fill="#545E65"></path>
                        <path d="M25.4844,0.5317 C17.2004,0.5317 10.4844,7.6947 10.4844,16.5317 C10.4844,25.3687 17.2004,32.5317 25.4844,32.5317 C33.7684,32.5317 40.4844,25.3687 40.4844,16.5317 C40.4844,7.6947 33.7684,0.5317 25.4844,0.5317 L25.4844,0.5317 Z" id="Stroke-91" stroke="#545E65" stroke-width="2"></path>
                        <path d="M35.7002,9.2238 C33.0212,7.5588 29.4362,6.5318 25.4842,6.5318 C21.5322,6.5318 17.9482,7.5588 15.2682,9.2238 C14.3422,12.5038 13.3422,15.3368 10.4842,17.5038 L10.4842,20.5318 C10.4842,32.4478 17.2972,40.5308 25.4842,40.5308 C33.6722,40.5308 40.4842,32.4478 40.4842,20.5318 L40.4842,17.5038 C37.6272,15.3368 36.6272,12.5038 35.7002,9.2238" id="Fill-92" fill="#F7F7F7"></path>
                        <path d="M35.7002,9.2238 C33.0212,7.5588 29.4362,6.5318 25.4842,6.5318 C21.5322,6.5318 17.9482,7.5588 15.2682,9.2238 C14.3422,12.5038 13.3422,15.3368 10.4842,17.5038 L10.4842,20.5318 C10.4842,32.4478 17.2972,40.5308 25.4842,40.5308 C33.6722,40.5308 40.4842,32.4478 40.4842,20.5318 L40.4842,17.5038 C37.6272,15.3368 36.6272,12.5038 35.7002,9.2238 L35.7002,9.2238 Z" id="Stroke-93" stroke="#545E65" stroke-width="2"></path>
                        <path d="M19.5088,22.3371 C19.5088,23.7181 18.6138,24.8371 17.5088,24.8371 C16.4038,24.8371 15.5088,23.7181 15.5088,22.3371 C15.5088,20.9561 16.4038,19.8371 17.5088,19.8371 C18.6138,19.8371 19.5088,20.9561 19.5088,22.3371" id="Fill-94" fill="#545E65"></path>
                        <path d="M35.5088,22.3371 C35.5088,23.7181 34.6138,24.8371 33.5088,24.8371 C32.4038,24.8371 31.5088,23.7181 31.5088,22.3371 C31.5088,20.9561 32.4038,19.8371 33.5088,19.8371 C34.6138,19.8371 35.5088,20.9561 35.5088,22.3371" id="Fill-95" fill="#545E65"></path>
                        <path d="M37.0089,34.6392 C37.0089,40.2712 31.8489,44.8372 25.4849,44.8372 C19.1199,44.8372 13.9599,40.2712 13.9599,34.6392 C13.9599,29.0072 18.8849,28.3372 25.2489,28.3372 C31.6139,28.3372 37.0089,29.0072 37.0089,34.6392" id="Fill-96" fill="#545E65"></path>
                        <path d="M21.9011,32.6555 C23.8811,34.7845 27.0871,34.7845 29.0681,32.6555 L21.9011,32.6555 Z" id="Fill-97" fill="#F7F7F7"></path>
                        <path d="M21.9011,32.6555 C23.8811,34.7845 27.0871,34.7845 29.0681,32.6555 L21.9011,32.6555 L21.9011,32.6555 Z" id="Stroke-98" stroke="#F7F7F7" stroke-width="2" stroke-linecap="round" stroke-linejoin="round"></path>
                    </g>
                </g>
            </g>
        </g>
    </g>
</svg>